<?xml version="1.0" encoding="utf-8"?>
<!-- Generator: Adobe Illustrator 23.0.6, SVG Export Plug-In . SVG Version: 6.00 Build 0)  -->
<svg version="1.1" id="Layer_1" xmlns="http://www.w3.org/2000/svg" xmlns:xlink="http://www.w3.org/1999/xlink" x="0px" y="0px"
	 viewBox="0 0 164.4 201.1" style="enable-background:new 0 0 164.4 201.1;" xml:space="preserve">
<style type="text/css">
	.st0{fill:#FFFFFF;stroke:#000000;stroke-miterlimit:10;}
</style>
<polygon class="st0" points="121.8,128.9 119.7,161.8 151.8,161.4 150.3,128.5 "/>
<path class="st0" d="M133.8,128c0-7.5,1.2-63.8,1.3-71.3l0.1-41.3c0-1.5,0-3.1,0-4.6c-0.6-0.2-1.4-0.3-2.3-0.3l-0.1,0
	c-2.3,0-4.2,0.9-4.2,2.1l-7,115.6L133.8,128L133.8,128z"/>
<path class="st0" d="M138.1,10.9c0,1.7,0,3.4,0,5.2c0,3.7,0,37,0,40.7c0,7.4-0.8,63.8-1,71.3l13.2-0.2l-5.5-115.3c0-1.1-1.9-2-4.2-2
	l-0.1,0C139.6,10.5,138.8,10.7,138.1,10.9L138.1,10.9z"/>
<g>
	<path class="st0" d="M137.7,164.9c0,1.7,0,3.5,0,5.3c0.5,0.1,1.1,0.2,1.8,0.2l8.5-0.1c2.4,0,4.2-1,4.2-2.1l-0.2-5.9l-14.2,0.2
		C137.7,163.2,137.7,164,137.7,164.9z"/>
	<path class="st0" d="M123.4,170.4l8.6,0c1,0,2-0.2,2.7-0.5c0.1-1.9,0-3.7,0.1-5.7c0.1-0.6,0-1.3,0.1-1.9l-15.2,0.2l-0.4,5.8
		C119.3,169.5,121.2,170.4,123.4,170.4z"/>
</g>
<path class="st0" d="M97.9,60.1c0.4-1,0.3-2.2-0.3-3.1c-0.7-1.2-2.1-1.3-2.6-2.4c-0.7-1.3-0.4-2.5-1.7-3.6c-1.2-0.9-2.8-1.3-4.2-0.8
	c-0.7-1.8-3.1-3.8-5.1-3.9c-0.7,0-1.5,0.1-2.2-0.1c-0.6-0.2-1.1-0.8-1.6-1.3c-2.5-2.2-5.1,0-7.5-1.4c-2.1-1.2-4-1.2-6.3-0.4
	c-1.6,0.6-1,0.5-2.6-0.3c-0.9-0.5-2-0.7-3.1-0.7c-1.8,0.2-2.8,1.9-4.5,2.1c-1.6,0.2-2.9-1.2-4.6-0.7c-1.5,0.5-2.8,1.8-3.2,3.4
	c-2.3-1.6-8.2-0.9-7.7,3c-1.8-1-4.2-0.8-5.9,0.5c-1.6,1.3-2.4,3.6-1.9,5.6c-1.9,0.3-3.5,1.7-4,3.5c-0.5,2.2,0.6,4.2,2.4,5.2
	c-0.9,1-1.3,2.5-0.8,3.8c0.5,1.3,1.7,2.2,3,2.4c-0.1,1.3,0.4,2.7,1.4,3.6c1.1,1,2.8,0.5,3.7,1.1c0.9,0.7,0.8,2.5,2,3.3
	c1.2,0.8,2.8,0.9,4.1,0.3c0.6,1.2,1.7,2,2.9,2.4c1.2,0.5,2.6,1.5,3.9,0.7c0.8-0.5,1.4-1.2,2.3-1.2c1,0,1.8,0.8,2.6,1.4
	c1.9,1.4,4.8,1.3,6.7-0.1c-0.3,0.2,4.4,1.8,4.9,1.8c2.3,0,3.7-1.5,6-1.1c2,0.3,4.2,0,5.2-2.1c0.9,1.1,2.7,0.9,4,0.2
	c1.2-0.7,2.2-1.9,3.5-2.5c1.4-0.7,3-0.7,4.4-1.3s2.5-2.4,1.7-3.6c1.1,0.7,2.6,0,3.2-1.1c0.6-1.1,0.7-2.4,0.8-3.7
	c0.1-1.3,0.4-2.3,1.2-3.3c0.6-0.8,1.3-1,1.5-2.3c0-0.1,0-0.1,0-0.2C99.7,62.1,99,60.8,97.9,60.1z M83.3,62.1c-0.2,1.9-1.5,3.5-3.9,5
	c-1,0.6-2.1,1.4-3.3,2.1c-3.7,2.5-8,5.4-12.3,5.4c-0.3,0-0.6,0-0.9,0c-5.5-0.5-11.2-3.2-15.1-7.2c-0.9-0.9-1.9-2.1-2-3.7
	c-0.4-6.6,9.2-10.3,14.3-12.2c0.4-0.2,0.8-0.3,1.1-0.4c1.5-0.6,3.1-0.9,4.8-0.9c4.5,0,8.5,2.1,11,3.9C80.5,56.2,83.6,58.8,83.3,62.1
	z"/>
<path class="st0" d="M76.2,55.2c-4.1-2.9-9.8-4.9-14.5-1.8c-1.8,1.1-3.1,3.1-3.1,5.2c-0.2,3.9,5.5,8.5,8.9,5.1c1-1,0.9-2.9-0.3-3.6
	c-0.8-0.5-3.9-1.1-2.7-2.7c0.9-1.3,4.2-0.4,5.1,0.3c1.3,1,2.1,2.7,1.8,4.4c-0.5,3.5-4.9,4.6-7.9,4.4c-2.5-0.2-5-1.9-6.4-4
	c-0.8-1.2-0.9-2.2-1-3.5c-0.1-1.2-0.1-2.4-1.5-2.8c-1.2-0.4-2.4,0.7-3.4,1.4c-1.9,1.4-3.9,3.4-3.7,5.9c0.1,1,0.8,1.9,1.5,2.7
	c3.7,3.7,8.9,6.2,14.1,6.7c5.3,0.5,11-4.6,15.5-7.2c2.1-1.2,3-2.4,3.1-3.7C81.8,59.6,79.1,57.3,76.2,55.2z"/>
<path class="st0" d="M109,63.5c0-14.3-19.9-25.8-44.4-25.8S20.2,49.2,20.2,63.5c0,0.4,0,0.7,0,1.1l0,0v52.8
	c0,14.2,19.9,25.8,44.4,25.8s44.4-11.6,44.4-25.8V64.5l0,0C109,64.2,109,63.8,109,63.5z M101.5,86.8c-5.8,6.3-13.9,9.3-22.4,8.1
	c-0.7-0.1-0.5-1.2,0.2-1.2c7.6-0.6,14.6-3.7,19.8-9.3C100.6,82.8,103,85.2,101.5,86.8z M27.4,59.2c0.5-1.9,2-3.5,3.8-4.3
	c0-2.2,0.9-4.4,2.7-5.7c1.2-1,2.8-1.5,4.4-1.5c0.4,0,0.8,0,1.2,0.1c0.2-0.4,0.4-0.8,0.7-1.2c1.1-1.3,3-2,5.3-2
	c0.8,0,1.5,0.1,2.2,0.3c0.8-1.3,2.1-2.3,3.6-2.8c0.4-0.1,0.8-0.2,1.3-0.2c0.9,0,1.7,0.3,2.4,0.5c0.5,0.2,0.8,0.3,1.1,0.3
	c0.5-0.1,0.9-0.4,1.4-0.7c0.8-0.6,1.8-1.2,3.2-1.4c0.2,0,0.4,0,0.6,0c1.2,0,2.4,0.3,3.4,0.9c0.3,0.2,0.5,0.3,0.7,0.4l0.5-0.2
	c1.3-0.5,2.4-0.7,3.5-0.7c1.4,0,2.8,0.4,4.2,1.2c0.3,0.2,0.7,0.3,1.2,0.3c0.4,0,0.7,0,1.1-0.1c0.5,0,1-0.1,1.5-0.1
	c1,0,2.5,0.2,4,1.5c0.2,0.1,0.3,0.3,0.4,0.4c0.2,0.2,0.5,0.5,0.6,0.5c0,0,0.2,0,0.4,0c0.1,0,0.3,0,0.4,0c0.2,0,0.4,0,0.6,0H84
	c2.3,0.1,4.7,1.8,5.9,3.7c0.1,0,0.3,0,0.4,0c1.5,0,2.9,0.5,4,1.4c1.3,1,1.6,2.2,1.8,3.1c0.1,0.4,0.2,0.7,0.3,1
	c0.1,0.1,0.4,0.3,0.7,0.5c0.6,0.4,1.4,0.8,1.9,1.8c0.6,1,0.9,2.2,0.7,3.4c1,1,1.6,2.5,1.5,3.9c0,0.1,0,0.2,0,0.3
	c-0.2,1.5-0.9,2.2-1.4,2.7c-0.1,0.1-0.3,0.3-0.4,0.4c-0.5,0.7-0.8,1.3-0.9,2.4v0.4c-0.1,1.2-0.2,2.6-1,3.9c-0.6,1.1-1.7,1.8-2.8,2.1
	c0,0.1,0,0.1-0.1,0.2c-0.4,1.3-1.5,2.6-2.8,3.2c-0.8,0.4-1.7,0.6-2.5,0.7c-0.7,0.1-1.3,0.3-1.9,0.5c-0.6,0.3-1.1,0.7-1.7,1.2
	c-0.5,0.4-1.1,0.9-1.7,1.3c-0.9,0.6-2,0.9-3,0.9c-0.5,0-1-0.1-1.5-0.2c-1.1,1-2.6,1.6-4.4,1.6c-0.5,0-1,0-1.5-0.1
	c-0.2,0-0.3,0-0.4,0c-0.6,0-1.2,0.2-1.9,0.5c-0.9,0.3-3.4,0.7-3.4,0.7S65,85.6,63,84.7c-1,0.5-2.2,0.8-3.5,0.8c-1.5,0-3-0.5-4.2-1.3
	c-0.2-0.1-0.4-0.3-0.6-0.5c-0.3-0.2-0.8-0.6-1-0.6c-0.1,0-0.6,0.3-0.8,0.5c-0.2,0.2-0.5,0.3-0.7,0.5c-0.6,0.4-1.2,0.5-1.9,0.5
	c-1.1,0-2-0.4-2.8-0.8c-0.2-0.1-0.5-0.2-0.7-0.3c-1.2-0.5-2.3-1.2-3-2.1c-0.3,0.1-0.6,0.1-1,0.1c-1.2,0-2.3-0.3-3.3-1
	c-1.2-0.8-1.6-1.9-1.9-2.8c-0.1-0.2-0.2-0.5-0.3-0.7c-0.2,0-0.5-0.1-0.7-0.1c-0.9-0.1-2.1-0.2-3.1-1.1c-1-0.9-1.7-2.2-1.9-3.5
	c-1.4-0.6-2.5-1.7-3-3.1c-0.5-1.3-0.4-2.7,0.1-3.9C27.4,63.6,26.8,61.3,27.4,59.2z M54.1,135.1c-13,0.7-17-13.8-26.4-19.3
	c-1.4-0.8-0.5-3.2,1.1-2.6c4.1,1.5,6.4,4.9,8.8,8.4c3.6,5.6,9.5,11.5,16.5,12.4C54.8,134,54.8,135,54.1,135.1z M97.4,128.1
	c-13.1,6-30.2,3.3-41.4-5.5c-12.4-9.8-17.6-26.2-31.2-34.9c-0.7-0.5-0.1-1.4,0.6-1.1c12.4,5.5,17.9,18.1,26.8,27.5
	C64,126.7,79.8,129.4,96,124.8C97.9,124.4,99.2,127.3,97.4,128.1z M102.4,109c-15.3,6.8-35.7,3.8-46.5-10c-0.5-0.7,0.3-1.5,1-1
	c6.4,5.2,12.6,9.7,21,10.8c8.1,1.1,15.6-0.1,23.1-3.1C102.9,105,104.2,108.2,102.4,109z"/>
</svg>
